<?xml version="1.0" encoding="utf-8"?>
<!-- Generator: Adobe Illustrator 18.1.1, SVG Export Plug-In . SVG Version: 6.00 Build 0)  -->
<svg version="1.1" xmlns="http://www.w3.org/2000/svg" xmlns:xlink="http://www.w3.org/1999/xlink" x="0px" y="0px"
	 viewBox="0 0 1024 420" enable-background="new 0 0 1024 420" xml:space="preserve">
<g id="fond">
	<rect fill="#FBFBFB" width="1024" height="420"/>
</g>
<g id="rues" display="none">
</g>
<g id="Calque_7">
	<g>
		<defs>
			<rect id="SVGID_1_" width="1024" height="420"/>
		</defs>
		<clipPath id="SVGID_2_">
			<use xlink:href="#SVGID_1_"  overflow="visible"/>
		</clipPath>
		<path clip-path="url(#SVGID_2_)" fill="#27374D" d="M963.1-93.3c8.9-10.5,23.3-14.1,25.4-14.6h153.8v-4h-154l-0.4,0
			c-0.3,0.1-18.5,4.1-28.8,17.5c-7.5-2-14.8-4-21.8-6c37-60,79-128.3,79.8-129.5l-3.4-2.1c-0.7,1.2-43.2,70.3-80.4,130.5
			c-37.3-10.2-67.7-18.5-83.4-22.7l-0.2-0.1l-18-1.2c-0.4-15-2.6-32.6-6.6-52.8c-0.1-0.6-0.3-1.3-0.4-1.9L989.1-220l-0.9-3.9
			l-164.4,39.8c-6.2-29.1-13.8-52.6-13.9-52.8l-3.8,1.2c0.2,0.5,7.7,23.6,13.8,52.5l-35.3,8.5l-18-56.9l-3.8,1.2l17.9,56.7l-3.2,0.8
			l-822.7,212l1,3.9L111.2,2.9l49.7,244.4L-86.4,137.2l-1.6,3.7l249.9,111.2l0,0l64.6,26.7l-55.8,101.4l-72.8-36.4
			c-6.1-3-13.5-0.6-16.6,5.4L25,459.4l3.6,1.8l11.6-22.7l684.2,336.3l1.8-3.6l-203.3-99.9l76.9-161.7
			c151.8,112.8,386.3,287.8,389.4,290l2.4-3.2c-2.6-2-180.7-134.8-326.8-243.6l59.6-147.4c2-5-0.2-10.8-5-13.2l-15.3-7.7
			c-4.5-2.2-6.4-7.6-4.4-12.2l44.2-99.8c1.8-4,6.4-6,10.5-4.5l15.9,5.7c5.8,2.1,12.1-0.8,14.4-6.5l16.9-42.1l122.3,43.5l151.6,529.9
			l3.8-1.1L880.4,102.9c7.9-9.5,17.4-21.9,19.4-28.6c2.5-8.5,43.1-55.6,62-77c23.6,169.6,83.7,602.1,84.5,607.4l4-0.6
			c-0.9-6.4-89-640.6-93.6-673.2c-1.2-8.6,0.7-15.4,4-20.8c116.6,31.8,283.2,77.3,287.2,78.8l0.8-1.9l0.9-1.8
			C1247.6-15.7,1083.4-60.5,963.1-93.3z M848.9-120.3c3,0.8,36.1,9.8,82,22.4c-25.5,41.4-48.1,77.8-52.1,83.9
			c-7.6,11.6-20.9,18.2-26.1,20.5L826.4-86c3.6-9,5.3-20.9,5.3-35.4L848.9-120.3z M751.8,203.3L843,49.6l22,14.1l10.9,38.2
			c-5.3,6.3-9.6,11-9.7,11.1l-0.1,0.1l-66.8,107.1L751.8,203.3z M539.9,259.1c4.7,2.9,3.9,13-1.7,22.1c-4.4,7.2-11,12.2-16,12.2
			c-1.1,0-2.1-0.3-3-0.8c-2.1-1.3-3.2-4.2-3-8.1c0.2-4.4,1.9-9.3,4.7-13.9c4.4-7.2,11-12.2,16-12.2
			C538.1,258.3,539.1,258.6,539.9,259.1z M518.5,296.7c1.1,0.5,2.4,0.7,3.7,0.7c6.5,0,14.1-5.5,19.4-14.1c6.4-10.3,7-21.2,2-26.3
			l25.6-38.3L609,244c2.5,1.6,4.2,4,4.8,6.9s0.1,5.8-1.4,8.3l-61.3,97.3c-2,3.2-5.5,5.1-9.3,5.1c-2.1,0-4.1-0.6-5.9-1.7l-41.1-26.1
			L518.5,296.7z M540.3,254.9c-1-0.4-2.1-0.6-3.3-0.6c-6.5,0-14.1,5.5-19.4,14.1c-3.2,5.2-5.1,10.8-5.3,15.9
			c-0.2,4.3,0.9,7.8,3,10.1l-23.8,37.2L451.3,306c-2.5-1.6-4.2-4-4.8-6.9c-0.6-2.9-0.1-5.8,1.4-8.3l61.3-97.3c2-3.2,5.5-5.1,9.3-5.1
			c2.1,0,4.1,0.6,5.9,1.7l41.5,26.4L540.3,254.9z M526.5,186.8c-2.5-1.6-5.3-2.3-8-2.3c-5,0-9.8,2.5-12.7,6.9l-61.3,97.3
			c-4.4,7-2.4,16.3,4.6,20.7l40.1,25.5l-25.4,39.8l-13.8,21c-84.9-56.8-159.5-94.5-160.4-95l-57.6-23.8l183-332.6l179.6,198.3
			l0.2,0.2l14.1,9.1l-40.9,61.3L526.5,186.8z M597.4,139.7l-64.8-71.6l104.3-150l-3.3-2.3L529.9,65.1L405-72.8l177.1-45.6l-0.4,0.6
			l145.2,93L611.2,148.6L597.4,139.7z M730.2-22.7l109.4,70.1L747.9,202l-120.2-42.7l-13.1-8.5L730.2-22.7z M732.5-26l64.8-97.1
			l25.2,37.8l41,143.1L732.5-26z M823.8-90.5l-21.9-32.9l25.8,1.7C827.7-110,826.6-99.3,823.8-90.5z M820.6-179.2
			c3.5,17.2,6.4,36.2,6.9,53.5l-28.1-1.8l-13.7-43.3L820.6-179.2z M778.4-169l3.4-0.8l13.7,43.2L795-127l-65.9,98.8l-142.7-91.4
			L778.4-169z M165.4,249.3L115.1,1.9l285.5-73.6l11.6,12.8L228.4,275.4L165.4,249.3z M230.2,280.4l57.8,23.9
			c2.6,1.3,76.3,38.7,160,94.7l-59.1,90.4L174.3,382.1L230.2,280.4z M84.9,351.1c2.1-4.1,7.1-5.8,11.3-3.7l290.5,145.4l-55.2,84.4
			L42,434.9L84.9,351.1z M335,579l55.2-84.3l171.4,85.8l-42.4,89.1L335,579z M563.3,576.8l-170.9-85.6l58.8-90
			c15.6,10.5,31.5,21.7,47.4,33.3c22,16.2,56.8,42,97.9,72.5L563.3,576.8z M780.8,265.9c-1.5,3.7-5.6,5.6-9.4,4.2l-15.9-5.7
			c-6.1-2.2-12.9,0.7-15.5,6.6l-44.2,99.8c-2.9,6.5-0.2,14.2,6.2,17.4l15.3,7.7c3,1.5,4.3,5.1,3.1,8.2l-59.2,146.4
			c-67.5-50.2-127.8-95-160.3-119c-15.9-11.7-31.9-22.9-47.6-33.5l13.8-21.1l25.5-39.8l41.1,26.2c2.5,1.6,5.3,2.3,8,2.3
			c5,0,9.8-2.5,12.7-6.9l61.3-97.3c4.4-7,2.4-16.3-4.6-20.7l-39.7-25.3l40.9-61.3l13.5,8.8l171.7,61L780.8,265.9z M922.4,264
			l-119.1-42.3l66.1-106.1c0.7-0.8,3.9-4.3,7.9-9L922.4,264z M952.6-68.5c0.8,5.4,3.8,27.5,8.5,60.6c-9,10.1-61.8,70-65.1,81
			c-1.7,5.6-9.6,16.2-16.9,25.1l-10.5-36.5l0.2-0.3l-0.4-0.2L854,10.3c5.3-2.2,19.9-9.2,28.3-22.2c4-6.2,26.9-43.2,52.7-85
			c7,1.9,14.2,3.9,21.7,5.9C953.2-85.1,951.3-77.7,952.6-68.5z"/>
	</g>
</g>
<g id="noms">
	<g>
		<path fill="#27374D" d="M341.8,318.2l-1.2-0.7l-0.4-4.6l-0.4-0.2l-1.9,3.3l-1-0.6l4.5-7.8l1.2,0.7c0.7,0.4,1.4,0.8,1.9,1.6
			c0.4,0.8,0.4,1.7-0.1,2.5c-0.7,1.1-1.9,1.6-3.1,1.1L341.8,318.2z M340.3,311.8l0.3,0.2c1,0.6,2.2,1,2.9-0.2
			c0.7-1.2-0.3-2.1-1.3-2.6L342,309L340.3,311.8z"/>
		<path fill="#27374D" d="M348.5,311.6l-2.7,4.6c-0.7,1.3-1,2.7,0.5,3.6c1.5,0.9,2.6-0.1,3.3-1.4l2.7-4.6l1,0.6l-2.9,4.9
			c-1,1.7-2.8,2.4-4.6,1.4s-2.1-3-1.1-4.7l2.9-4.9L348.5,311.6z"/>
		<path fill="#27374D" d="M355.1,315.4l4.2,2.4l-0.5,0.9l-3.2-1.9l-1.3,2.2l3.1,1.8l-0.5,0.9l-3.1-1.8l-1.7,3l3.2,1.9l-0.5,0.9
			l-4.2-2.4L355.1,315.4z"/>
		<path fill="#27374D" d="M367.2,324.4c0-0.7-0.2-1.1-0.8-1.5c-0.6-0.4-1.6-0.3-2,0.3c-0.4,0.6,0.1,1.3,0.4,1.8l0.4,0.5
			c0.9,1.1,1.3,2.2,0.6,3.5c-0.8,1.4-2.5,1.8-3.9,1c-1.3-0.7-1.7-2.2-1.1-3.6l1.1,0.4c-0.5,0.9-0.2,1.9,0.7,2.4
			c0.8,0.5,1.9,0.1,2.3-0.7c0.5-0.8,0-1.6-0.5-2.3l-0.4-0.5c-0.7-0.9-1.2-1.9-0.5-3c0.7-1.3,2.3-1.4,3.5-0.7
			c0.9,0.5,1.3,1.3,1.3,2.4L367.2,324.4z"/>
		<path fill="#27374D" d="M368.2,333.5l-1-0.6l4-6.9l-1.9-1.1l0.5-0.9l4.7,2.7l-0.5,0.9l-1.9-1.1L368.2,333.5z"/>
		<path fill="#27374D" d="M382.2,335.4l1.8-3.2l1,0.6l-4.6,7.8l-1-0.6l2.2-3.8l-3.7-2.2l-2.2,3.8l-1-0.6l4.6-7.8l1,0.6l-1.8,3.2
			L382.2,335.4z"/>
		<path fill="#27374D" d="M392.3,342.3c-1.4,2.3-4.2,3-6.5,1.7c-2.3-1.3-3.1-4.1-1.7-6.5c1.3-2.2,4.2-3,6.5-1.7
			C392.8,337.2,393.6,340.1,392.3,342.3z M391.3,341.7c1-1.7,0.6-3.9-1.3-5c-1.8-1.1-4-0.4-5,1.3c-1,1.8-0.4,4,1.3,5
			C388,344.1,390.3,343.5,391.3,341.7z"/>
		<path fill="#27374D" d="M396.1,338.8l2.3,9.6l3.4-5.8l1,0.6l-4.7,8.1l-2.3-9.6l-3.4,5.8l-1-0.6L396.1,338.8z"/>
		<path fill="#27374D" d="M410,352.7c-1.4,2.3-4.2,3-6.5,1.7c-2.3-1.3-3.1-4.1-1.7-6.5c1.3-2.2,4.2-3,6.5-1.7
			C410.6,347.5,411.3,350.4,410,352.7z M409.1,352.1c1-1.7,0.6-3.9-1.3-5c-1.8-1.1-4-0.4-5,1.3c-1,1.8-0.4,4,1.3,5
			S408,353.9,409.1,352.1z"/>
		<path fill="#27374D" d="M414.1,360.2l-1.2-0.7l-0.4-4.6l-0.4-0.2l-1.9,3.3l-1-0.6l4.6-7.8l1.2,0.7c0.7,0.4,1.4,0.8,1.9,1.6
			c0.4,0.8,0.4,1.7-0.1,2.5c-0.7,1.1-1.9,1.6-3.1,1.1L414.1,360.2z M412.6,353.9l0.3,0.2c1,0.6,2.2,1,2.9-0.2
			c0.7-1.2-0.3-2.1-1.3-2.6l-0.3-0.2L412.6,353.9z"/>
		<path fill="#27374D" d="M419.9,353.2l4.2,2.4l-0.5,0.9l-3.2-1.9l-1.3,2.2l3.1,1.8l-0.5,0.9l-3.1-1.8l-1.7,3l3.2,1.9l-0.5,0.9
			l-4.2-2.4L419.9,353.2z M424.6,353.1l-2.6,0.6l-0.3-0.5l2.3-1L424.6,353.1z"/>
	</g>
	<g>
		<path fill="#27374D" d="M94.6,331.6l-1.2-0.6l-0.7-4.6l-0.4-0.2l-1.7,3.4l-1-0.5l4-8.1l1.2,0.6c0.7,0.4,1.5,0.8,1.9,1.4
			c0.5,0.7,0.5,1.7,0.1,2.5c-0.6,1.2-1.8,1.7-3.1,1.3L94.6,331.6z M92.7,325.3l0.3,0.2c1,0.5,2.2,0.9,2.9-0.4c0.6-1.3-0.5-2-1.5-2.5
			l-0.3-0.1L92.7,325.3z"/>
		<path fill="#27374D" d="M100.8,324.6l-2.4,4.8c-0.7,1.3-0.9,2.7,0.7,3.5c1.6,0.8,2.6-0.2,3.2-1.6l2.4-4.8l1,0.5l-2.6,5.1
			c-0.9,1.8-2.7,2.6-4.5,1.7c-1.9-0.9-2.3-2.8-1.4-4.6l2.6-5.1L100.8,324.6z"/>
		<path fill="#27374D" d="M107.7,328l4.3,2.2l-0.5,0.9l-3.3-1.7l-1.1,2.3l3.2,1.6l-0.5,0.9l-3.2-1.6l-1.5,3.1l3.3,1.7l-0.5,0.9
			l-4.3-2.2L107.7,328z"/>
		<path fill="#27374D" d="M117.4,332.9l1.7,0.8c2.5,1.2,3.9,3.6,2.5,6.3c-1.4,2.8-4.1,3.1-6.6,1.8l-1.6-0.8L117.4,332.9z
			 M114.8,340.5l0.4,0.2c2.1,1,4.2,1.1,5.4-1.2c1.2-2.4-0.2-4-2.3-5l-0.4-0.2L114.8,340.5z"/>
		<path fill="#27374D" d="M125.1,336.8l4.3,2.2l-0.5,0.9l-3.3-1.7l-1.1,2.3l3.2,1.6l-0.5,0.9l-3.2-1.6l-1.5,3.1l3.3,1.7l-0.5,0.9
			l-4.3-2.2L125.1,336.8z"/>
		<path fill="#27374D" d="M135.9,352.2l-1.2-0.6L134,347l-0.4-0.2l-1.7,3.4l-1-0.5l4-8.1l1.2,0.6c0.7,0.4,1.5,0.8,1.9,1.4
			c0.5,0.7,0.5,1.7,0.1,2.5c-0.6,1.2-1.8,1.7-3.1,1.3L135.9,352.2z M134,346l0.3,0.2c1,0.5,2.2,0.9,2.9-0.4c0.6-1.3-0.5-2-1.5-2.5
			l-0.3-0.1L134,346z"/>
		<path fill="#27374D" d="M138.2,353.4l-1-0.5l4-8.1l1,0.5L138.2,353.4z"/>
		<path fill="#27374D" d="M144,353.7l5.4-4.8l1.1,0.6l-7.8,6.8l0.7-10.3l1.1,0.6L144,353.7z"/>
		<path fill="#27374D" d="M157.6,358c-1.2,2.4-4,3.3-6.3,2.1s-3.3-3.9-2.1-6.3c1.2-2.3,4-3.3,6.3-2.1
			C157.8,352.9,158.7,355.7,157.6,358z M156.6,357.5c0.9-1.8,0.3-3.9-1.6-4.9c-1.9-0.9-4-0.1-4.9,1.7c-0.9,1.8-0.2,4,1.6,4.9
			C153.5,360.1,155.7,359.4,156.6,357.5z"/>
		<path fill="#27374D" d="M158.6,362.4l2.5,1.2l-0.5,0.9l-3.5-1.7l4-8.1l1,0.5L158.6,362.4z"/>
		<path fill="#27374D" d="M162.7,365.7l-1-0.5l4-8.1l1,0.5L162.7,365.7z"/>
	</g>
	<g>
		<path fill="#27374D" d="M129.6,149.1l0.3,1.3l-3.3,3.3l0.1,0.5l3.8-0.7l0.2,1.1l-8.9,1.7l-0.3-1.3c-0.1-0.8-0.3-1.6,0-2.4
			c0.3-0.8,1.1-1.4,1.9-1.6c1.3-0.2,2.5,0.4,2.9,1.7L129.6,149.1z M125.7,154.4l-0.1-0.4c-0.2-1.1-0.7-2.3-2.1-2.1
			c-1.4,0.3-1.3,1.6-1.1,2.7l0.1,0.3L125.7,154.4z"/>
		<path fill="#27374D" d="M120.2,148.3l5.2-1c1.5-0.3,2.7-1,2.4-2.7s-1.7-1.9-3.2-1.6l-5.2,1l-0.2-1.1l5.6-1.1
			c2-0.4,3.7,0.6,4.1,2.6s-0.9,3.5-2.8,3.9l-5.6,1.1L120.2,148.3z"/>
		<path fill="#27374D" d="M118.8,140.8l-0.9-4.8l1-0.2l0.7,3.7l2.5-0.5l-0.7-3.6l1-0.2l0.7,3.6l3.4-0.6l-0.7-3.7l1-0.2l0.9,4.8
			L118.8,140.8z"/>
		<path fill="#27374D" d="M116.8,130.2l-0.3-1.8c-0.5-2.7,0.5-5.3,3.5-5.8c3-0.6,4.9,1.4,5.4,4.2l0.3,1.8L116.8,130.2z M124.5,127.6
			l-0.1-0.4c-0.4-2.3-1.6-4.1-4.2-3.6c-2.6,0.5-3.1,2.6-2.6,4.9l0.1,0.4L124.5,127.6z"/>
		<path fill="#27374D" d="M115,120.7l5.2-1c1.5-0.3,2.7-1,2.4-2.7c-0.3-1.7-1.7-1.9-3.2-1.6l-5.2,1l-0.2-1.1l5.6-1.1
			c2-0.4,3.7,0.6,4.1,2.6c0.4,2-0.9,3.5-2.8,3.9l-5.6,1.1L115,120.7z"/>
		<path fill="#27374D" d="M122.3,110.4l0.2,1.1l-8.9,1.7l-0.2-1.3c-0.5-2.7,0.3-3.8,1.9-4.1c1.9-0.4,2.9,0.9,3.2,2.6l0.1,0.6
			L122.3,110.4z M117.6,111.3l-0.1-0.4c-0.2-1.1-0.7-2.3-2.1-2.1c-1.4,0.3-1.3,1.6-1.1,2.7l0.1,0.3L117.6,111.3z"/>
		<path fill="#27374D" d="M115,100.8l-3.6,0.7l-0.2-1.1l8.9-1.7l0.2,1.1l-4.3,0.8l0.8,4.2l4.3-0.8l0.2,1.1l-8.9,1.7l-0.2-1.1
			l3.6-0.7L115,100.8z"/>
		<path fill="#27374D" d="M113.6,88.7c2.6-0.5,5,1.2,5.5,3.8c0.5,2.6-1.1,5-3.8,5.5c-2.5,0.5-5-1.2-5.5-3.8
			C109.3,91.6,111,89.1,113.6,88.7z M113.8,89.8c-2,0.4-3.3,2.1-2.9,4.2c0.4,2.1,2.3,3.2,4.3,2.9c2-0.4,3.3-2.3,2.9-4.2
			C117.7,90.7,115.8,89.4,113.8,89.8z"/>
		<path fill="#27374D" d="M117.3,83.8l0.2,1.1l-7.9,1.5l0.4,2.1l-1,0.2l-1-5.3l1-0.2l0.4,2.1L117.3,83.8z"/>
	</g>
	<g>
		<path fill="#27374D" d="M283.9,149.5l-0.7,1.2l-4.6,0.5l-0.2,0.4l3.3,1.9l-0.5,1l-7.9-4.4l0.7-1.2c0.4-0.7,0.8-1.5,1.5-1.9
			c0.8-0.4,1.7-0.4,2.5,0c1.1,0.6,1.7,1.9,1.2,3.1L283.9,149.5z M277.6,151.2l0.2-0.3c0.6-1,1-2.2-0.3-2.9c-1.2-0.7-2.1,0.4-2.6,1.4
			l-0.1,0.3L277.6,151.2z"/>
		<path fill="#27374D" d="M277.2,143l4.7,2.6c1.3,0.7,2.7,1,3.5-0.5c0.8-1.5-0.1-2.6-1.4-3.3l-4.7-2.6l0.5-1l5,2.8
			c1.7,1,2.5,2.8,1.5,4.6c-1,1.8-2.9,2.2-4.7,1.2l-5-2.8L277.2,143z"/>
		<path fill="#27374D" d="M280.9,136.3l2.4-4.2l0.9,0.5l-1.8,3.3l2.2,1.2l1.8-3.2l0.9,0.5l-1.8,3.2l3,1.7l1.8-3.3l0.9,0.5l-2.4,4.2
			L280.9,136.3z"/>
		<path fill="#27374D" d="M291,121.9c-0.8,0.3-1.5,0.9-1.9,1.7c-1,1.8-0.3,3.9,1.5,4.9c1.7,1,4,0.4,4.9-1.3c0.4-0.8,0.6-1.7,0.4-2.6
			l1.2,0.6c0,0.8-0.2,1.7-0.6,2.4c-1.3,2.3-4.1,3.1-6.4,1.8c-2.3-1.3-3.1-4.2-1.8-6.5c0.4-0.7,0.9-1.3,1.6-1.7L291,121.9z"/>
		<path fill="#27374D" d="M296.9,121.5l1.5,2l-0.6,1.1l-6.1-8.4L302,117l-0.6,1.1l-2.5-0.2L296.9,121.5z M293.9,117.4l2.4,3.2
			l1.6-2.8L293.9,117.4z"/>
		<path fill="#27374D" d="M298.2,111.6L298.2,111.6l4.7,3.8l-0.6,1l-7.3-6.2l7.7,0.8l-4.7-6.2l9.1,3l-0.6,1l-5.7-2l0,0l4.1,5.4
			L298.2,111.6z"/>
		<path fill="#27374D" d="M300,102.1l0.5-1c0.8-1.5,2-2.7,3.8-1.7c0.6,0.3,1.1,1,1,1.7l0,0c0.7-0.8,2-1,2.9-0.5
			c1.6,0.9,1.5,2.6,0.7,4l-1,1.8L300,102.1z M304.1,103l0.1-0.3c0.5-0.9,0.8-1.8-0.4-2.4c-1.1-0.6-1.7,0-2.2,1l-0.2,0.3L304.1,103z
			 M307.6,105l0.4-0.8c0.5-0.9,0.8-2-0.4-2.6c-1.1-0.6-2,0.4-2.5,1.3l-0.3,0.6L307.6,105z"/>
		<path fill="#27374D" d="M311.7,90.3c2.3,1.3,3.1,4.1,1.8,6.4c-1.3,2.3-4.1,3.2-6.4,1.8c-2.3-1.3-3.1-4.2-1.8-6.4
			C306.6,89.9,309.5,89.1,311.7,90.3z M311.2,91.3c-1.7-1-3.9-0.5-5,1.4c-1,1.9-0.3,4,1.4,4.9c1.8,1,4,0.3,5-1.4
			C313.6,94.5,313,92.3,311.2,91.3z"/>
		<path fill="#27374D" d="M308.2,86.5l9.5-2.5l-5.8-3.2l0.5-1l8.2,4.6l-9.5,2.5l5.9,3.3l-0.5,1L308.2,86.5z"/>
	</g>
	<g>
		<path fill="#27374D" d="M464,27.5l-0.9-1l1.1-4.5l-0.3-0.3l-2.8,2.6l-0.8-0.8l6.7-6.1l0.9,1c0.5,0.6,1.1,1.2,1.3,2.1
			c0.2,0.9-0.2,1.7-0.8,2.3c-1,0.9-2.3,1-3.3,0.1L464,27.5z M464.5,21l0.2,0.3c0.8,0.9,1.8,1.6,2.8,0.7c1.1-0.9,0.3-2.1-0.4-2.9
			l-0.2-0.2L464.5,21z"/>
		<path fill="#27374D" d="M472.3,23.3l-4,3.6c-1.1,1-1.8,2.2-0.6,3.5c1.2,1.3,2.5,0.7,3.6-0.3l4-3.6l0.8,0.8l-4.2,3.8
			c-1.5,1.3-3.4,1.4-4.8-0.1c-1.4-1.5-1.1-3.5,0.4-4.8l4.2-3.8L472.3,23.3z"/>
		<path fill="#27374D" d="M477.5,29l3.3,3.6l-0.8,0.7l-2.5-2.8l-1.9,1.7l2.4,2.7l-0.8,0.7l-2.4-2.7l-2.5,2.3l2.5,2.8l-0.8,0.7
			l-3.3-3.6L477.5,29z"/>
		<path fill="#27374D" d="M484.7,37l1.3,1.4c1.9,2.1,2.3,4.7,0.1,6.8c-2.3,2.1-4.9,1.4-6.8-0.7l-1.2-1.4L484.7,37z M479.5,43.2
			l0.3,0.3c1.5,1.7,3.5,2.6,5.5,0.8c2-1.8,1.3-3.8-0.3-5.5l-0.3-0.3L479.5,43.2z"/>
		<path fill="#27374D" d="M490.5,43.5l3.3,3.6l-0.8,0.7l-2.5-2.8l-1.9,1.7l2.4,2.7l-0.8,0.7l-2.4-2.7l-2.5,2.3l2.5,2.8l-0.8,0.7
			l-3.3-3.6L490.5,43.5z"/>
		<path fill="#27374D" d="M496.6,52.7c0.2-0.6,0.1-1.1-0.3-1.6c-0.5-0.5-1.4-0.8-2-0.3c-0.5,0.5-0.3,1.2-0.1,1.8l0.2,0.7
			c0.5,1.3,0.6,2.5-0.5,3.5c-1.2,1.1-2.9,0.9-4-0.3c-1-1.1-0.9-2.7,0-3.8l0.9,0.7c-0.7,0.7-0.8,1.7-0.1,2.4c0.7,0.7,1.7,0.7,2.4,0.1
			c0.7-0.7,0.5-1.5,0.2-2.3l-0.2-0.6c-0.4-1.1-0.6-2.2,0.4-3c1.1-1,2.6-0.6,3.5,0.4c0.7,0.7,0.9,1.7,0.5,2.6L496.6,52.7z"/>
		<path fill="#27374D" d="M505.7,62.8c0-0.9-0.4-1.7-0.9-2.4c-1.4-1.5-3.6-1.5-5.1-0.2c-1.5,1.3-1.7,3.6-0.3,5.1
			c0.6,0.7,1.4,1.1,2.3,1.2l-1,0.9c-0.8-0.2-1.5-0.8-2.1-1.3c-1.7-1.9-1.6-4.9,0.3-6.6c2-1.8,5-1.6,6.8,0.4c0.5,0.6,0.9,1.3,1.1,2.1
			L505.7,62.8z"/>
		<path fill="#27374D" d="M504.1,68.6l-2.4,0.8l-0.8-0.9l9.9-3.1l-4.1,9.5l-0.8-0.9l1-2.3L504.1,68.6z M509,67l-3.8,1.3l2.2,2.4
			L509,67z"/>
		<path fill="#27374D" d="M508.4,76.7l-0.8-0.8l6.7-6.1l0.9,1c1.9,2.1,1.7,3.3,0.5,4.5c-1.4,1.3-2.9,0.7-4.1-0.6l-0.4-0.5
			L508.4,76.7z M512,73.5l0.2,0.3c0.8,0.9,1.8,1.6,2.8,0.7c1.1-0.9,0.3-2.1-0.5-2.9l-0.2-0.2L512,73.5z"/>
		<path fill="#27374D" d="M519.4,75.4l-4,3.6c-1.1,1-1.8,2.2-0.6,3.5c1.2,1.3,2.5,0.7,3.6-0.3l4-3.6l0.8,0.8l-4.2,3.8
			c-1.5,1.3-3.4,1.4-4.8-0.1c-1.4-1.5-1.1-3.5,0.4-4.8l4.2-3.8L519.4,75.4z"/>
		<path fill="#27374D" d="M527.7,87.1c0-0.9-0.4-1.7-0.9-2.4c-1.4-1.5-3.6-1.5-5.1-0.2c-1.5,1.3-1.7,3.6-0.3,5.1
			c0.6,0.7,1.4,1.1,2.3,1.2l-1,0.9c-0.8-0.2-1.5-0.7-2.1-1.3c-1.7-1.9-1.6-4.9,0.3-6.6c2-1.8,5-1.6,6.8,0.4c0.5,0.6,0.9,1.3,1.1,2.1
			L527.7,87.1z"/>
		<path fill="#27374D" d="M524.3,94.3l-0.8-0.8l6.7-6.1l0.8,0.8L524.3,94.3z"/>
		<path fill="#27374D" d="M532.8,89.6l-0.7,9.8l5-4.5l0.8,0.8l-7,6.3l0.7-9.8l-5,4.5l-0.8-0.8L532.8,89.6z"/>
		<path fill="#27374D" d="M539.2,97.4l3.3,3.6l-0.8,0.7l-2.5-2.8l-1.9,1.7l2.4,2.7L539,104l-2.4-2.7l-2.5,2.3l2.5,2.8l-0.8,0.7
			l-3.3-3.6L539.2,97.4z"/>
		<path fill="#27374D" d="M545.2,106.6c0.2-0.6,0.1-1.1-0.3-1.6c-0.5-0.5-1.4-0.8-2-0.3c-0.5,0.5-0.3,1.2-0.1,1.8l0.2,0.6
			c0.5,1.3,0.6,2.5-0.5,3.5c-1.2,1.1-2.9,0.9-4-0.3c-1-1.1-0.9-2.7,0-3.8l0.9,0.7c-0.7,0.7-0.8,1.7-0.1,2.4s1.7,0.7,2.4,0.1
			c0.7-0.7,0.5-1.5,0.2-2.3l-0.2-0.6c-0.4-1.1-0.6-2.2,0.4-3c1.1-1,2.6-0.6,3.5,0.4c0.7,0.7,0.9,1.7,0.5,2.6L545.2,106.6z"/>
	</g>
	<g>
		<path fill="#27374D" d="M611.5,313.4h-1.1v-9h1.3c2.8,0,3.6,1,3.6,2.6c0,1.9-1.5,2.6-3.2,2.6h-0.6V313.4z M611.5,308.6h0.4
			c1.2,0,2.4-0.2,2.4-1.7c0-1.4-1.3-1.6-2.5-1.6h-0.3V308.6z"/>
		<path fill="#27374D" d="M618,312.3h2.7v1h-3.9v-9h1.1V312.3z"/>
		<path fill="#27374D" d="M623.4,311.1l-1,2.3h-1.2l4.3-9.4l4.3,9.4h-1.2l-1-2.3H623.4z M625.5,306.4l-1.6,3.7h3.2L625.5,306.4z"/>
		<path fill="#27374D" d="M637.7,306c-0.6-0.6-1.5-0.9-2.4-0.9c-2,0-3.6,1.7-3.6,3.7c0,2,1.5,3.7,3.5,3.7c0.9,0,1.7-0.3,2.4-0.9v1.3
			c-0.7,0.4-1.6,0.6-2.4,0.6c-2.6,0-4.7-2.1-4.7-4.7c0-2.7,2.1-4.8,4.8-4.8c0.8,0,1.6,0.2,2.3,0.6V306z"/>
		<path fill="#27374D" d="M639.7,304.3h4.9v1h-3.7v2.5h3.6v1h-3.6v3.4h3.7v1h-4.9V304.3z"/>
		<path fill="#27374D" d="M600.5,325.4l2.7-6.7h1.2l-3.9,9.5l-3.9-9.5h1.2L600.5,325.4z"/>
		<path fill="#27374D" d="M605.8,318.7h4.9v1h-3.7v2.5h3.6v1h-3.6v3.4h3.7v1h-4.9V318.7z"/>
		<path fill="#27374D" d="M612.5,318.3l6.8,7.1v-6.7h1.1v9.4l-6.8-7.1v6.7h-1.1V318.3z"/>
		<path fill="#27374D" d="M622.5,318.7h1.9c2.8,0,5.1,1.5,5.1,4.5c0,3.1-2.3,4.6-5.1,4.6h-1.8V318.7z M623.7,326.7h0.4
			c2.3,0,4.3-0.9,4.3-3.5c0-2.6-2-3.5-4.3-3.5h-0.4V326.7z"/>
		<path fill="#27374D" d="M640,323.2c0,2.7-2.1,4.7-4.7,4.7s-4.7-2-4.7-4.7c0-2.6,2.1-4.7,4.7-4.7C637.9,318.5,640,320.6,640,323.2z
			 M638.9,323.2c0-2-1.5-3.7-3.6-3.7c-2.1,0-3.6,1.7-3.6,3.7c0,2.1,1.7,3.7,3.6,3.7S638.9,325.3,638.9,323.2z M635.3,315.8l1.9,1.7
			l-0.7,0.6l-1.2-1.2l-1.2,1.2l-0.7-0.6L635.3,315.8z"/>
		<path fill="#27374D" d="M643.3,321.8L643.3,321.8l-1.1,6H641l1.8-9.4l3.1,7.1l3.1-7.1l1.8,9.4h-1.2l-1.1-6h0l-2.7,6.2L643.3,321.8
			z"/>
		<path fill="#27374D" d="M652.6,318.7h4.9v1h-3.7v2.5h3.6v1h-3.6v3.4h3.7v1h-4.9V318.7z"/>
	</g>
	<g>
		<path fill="#27374D" d="M762.6,328.4L762.6,328.4l-1.1,6h-1.2l1.8-9.4l3.1,7.1l3.1-7.1l1.8,9.4h-1.2l-1.1-6h0l-2.7,6.2
			L762.6,328.4z"/>
		<path fill="#27374D" d="M773.2,332.1l-1,2.3h-1.2l4.3-9.4l4.3,9.4h-1.2l-1-2.3H773.2z M775.3,327.4l-1.6,3.7h3.2L775.3,327.4z"/>
		<path fill="#27374D" d="M786.6,334.4h-1.4l-2.7-3.8h-0.5v3.8h-1.1v-9h1.4c0.8,0,1.7,0,2.4,0.4c0.8,0.4,1.2,1.3,1.2,2.2
			c0,1.3-0.9,2.4-2.2,2.5L786.6,334.4z M782.1,329.6h0.4c1.2,0,2.4-0.2,2.4-1.7c0-1.4-1.3-1.6-2.5-1.6h-0.3V329.6z"/>
		<path fill="#27374D" d="M794.6,327c-0.6-0.6-1.5-0.9-2.4-0.9c-2,0-3.6,1.7-3.6,3.7c0,2,1.5,3.7,3.5,3.7c0.9,0,1.7-0.3,2.4-0.9v1.3
			c-0.7,0.4-1.6,0.6-2.4,0.6c-2.6,0-4.7-2.1-4.7-4.7c0-2.7,2.1-4.8,4.8-4.8c0.8,0,1.6,0.2,2.3,0.6V327z"/>
		<path fill="#27374D" d="M801.9,329v-3.6h1.1v9h-1.1V330h-4.3v4.3h-1.1v-9h1.1v3.6H801.9z"/>
		<path fill="#27374D" d="M805.3,325.3h4.9v1h-3.7v2.5h3.6v1h-3.6v3.4h3.7v1h-4.9V325.3z M809.3,322.9l-2,1.8l-0.5-0.3l1.5-2
			L809.3,322.9z"/>
		<path fill="#27374D" d="M755.4,341.4c-0.3-0.6-0.8-0.9-1.5-0.9c-0.7,0-1.5,0.5-1.5,1.3c0,0.7,0.7,1.1,1.3,1.3l0.6,0.3
			c1.3,0.5,2.2,1.2,2.2,2.7c0,1.6-1.3,2.8-2.9,2.8c-1.5,0-2.6-1.1-2.8-2.5l1.1-0.2c0,1,0.8,1.7,1.8,1.7c1,0,1.7-0.8,1.7-1.8
			c0-1-0.8-1.4-1.6-1.7l-0.6-0.3c-1-0.4-2-1-2-2.3c0-1.5,1.3-2.3,2.7-2.3c1,0,1.8,0.5,2.3,1.4L755.4,341.4z"/>
		<path fill="#27374D" d="M760.8,348.8h-1.1v-8h-2.1v-1h5.4v1h-2.1V348.8z"/>
		<path fill="#27374D" d="M766,344.5v0.9h-2.6v-0.9H766z"/>
		<path fill="#27374D" d="M773.4,343.4v-3.6h1.1v9h-1.1v-4.3h-4.3v4.3H768v-9h1.1v3.6H773.4z"/>
		<path fill="#27374D" d="M785.6,344.2c0,2.7-2.1,4.7-4.7,4.7s-4.7-2-4.7-4.7c0-2.6,2.1-4.7,4.7-4.7
			C783.5,339.5,785.6,341.6,785.6,344.2z M784.5,344.2c0-2-1.5-3.7-3.6-3.7c-2.1,0-3.6,1.7-3.6,3.7c0,2.1,1.7,3.7,3.6,3.7
			S784.5,346.3,784.5,344.2z"/>
		<path fill="#27374D" d="M787.2,339.3l6.8,7.1v-6.7h1.1v9.4l-6.8-7.1v6.7h-1.1V339.3z"/>
		<path fill="#27374D" d="M806.2,344.2c0,2.7-2.1,4.7-4.7,4.7s-4.7-2-4.7-4.7c0-2.6,2.1-4.7,4.7-4.7
			C804,339.5,806.2,341.6,806.2,344.2z M805.1,344.2c0-2-1.5-3.7-3.6-3.7c-2.1,0-3.6,1.7-3.6,3.7c0,2.1,1.7,3.7,3.6,3.7
			S805.1,346.3,805.1,344.2z"/>
		<path fill="#27374D" d="M813.5,348.8h-1.4l-2.7-3.8H809v3.8h-1.1v-9h1.4c0.8,0,1.7,0,2.4,0.4c0.8,0.4,1.2,1.3,1.2,2.2
			c0,1.3-0.9,2.4-2.2,2.5L813.5,348.8z M809,344h0.4c1.2,0,2.4-0.2,2.4-1.7c0-1.4-1.3-1.6-2.5-1.6H809V344z"/>
		<path fill="#27374D" d="M815,339.7h4.9v1h-3.7v2.5h3.6v1h-3.6v3.4h3.7v1H815V339.7z M819,337.3l-2,1.8l-0.5-0.3l1.5-2L819,337.3z"
			/>
	</g>
	<g>
		<path fill="#27374D" d="M924.7,204.5l-2.5-0.4l-0.3-1.2l10.2,1.7l-7.9,6.7l-0.3-1.2l1.9-1.6L924.7,204.5z M929.8,205.2l-4-0.6
			l0.9,3.1L929.8,205.2z"/>
		<path fill="#27374D" d="M927.3,213.4l7.2,0.8l0.3,1.2l-10.2-1.3l8.1-6.3l0.3,1.2L927.3,213.4z"/>
		<path fill="#27374D" d="M935.1,216.7l1.3,4.7l-1,0.3l-1-3.6l-2.4,0.7l1,3.5l-1,0.3l-1-3.5l-3.3,0.9l1,3.6l-1,0.3l-1.3-4.7
			L935.1,216.7z"/>
		<path fill="#27374D" d="M937.3,223.1l-5.1,8.4l6.4-1.8l0.3,1.1l-9.1,2.5l5.1-8.4l-6.5,1.8l-0.3-1.1L937.3,223.1z"/>
		<path fill="#27374D" d="M939.8,233.9l-5.1,1.4c-1.4,0.4-2.6,1.2-2.2,2.9c0.5,1.7,1.9,1.7,3.3,1.4l5.1-1.4l0.3,1.1l-5.5,1.5
			c-1.9,0.5-3.7-0.3-4.3-2.3c-0.6-2,0.6-3.6,2.5-4.1l5.5-1.5L939.8,233.9z"/>
		<path fill="#27374D" d="M941.9,241.3l1.3,4.7l-1,0.3l-1-3.6l-2.4,0.7l1,3.5l-1,0.3l-1-3.5l-3.3,0.9l1,3.6l-1,0.3l-1.3-4.7
			L941.9,241.3z"/>
		<path fill="#27374D" d="M944.7,251.8l0.5,1.8c0.7,2.7-0.1,5.3-3,6.1c-3,0.8-5-1-5.8-3.7l-0.5-1.8L944.7,251.8z M937.3,255l0.1,0.4
			c0.6,2.2,2,3.9,4.5,3.2c2.5-0.7,2.8-2.8,2.2-5.1l-0.1-0.4L937.3,255z"/>
		<path fill="#27374D" d="M947,260.1l1.3,4.7l-1,0.3l-1-3.6l-2.4,0.7l1,3.5l-1,0.3l-1-3.5l-3.3,0.9l1,3.6l-1,0.3l-1.3-4.7L947,260.1
			z"/>
		<path fill="#27374D" d="M942.5,273.9l0.7,2.6l-1,0.3l-1-3.7l8.7-2.4l0.3,1.1L942.5,273.9z"/>
		<path fill="#27374D" d="M951.4,276.5l-3.5-0.7l0.1-0.7l3.5,0.4L951.4,276.5z"/>
		<path fill="#27374D" d="M950.1,288.3c-2.6,0.7-5.1-0.8-5.8-3.3c-0.7-2.5,0.7-5.1,3.3-5.8c2.5-0.7,5.1,0.8,5.8,3.3
			S952.6,287.6,950.1,288.3z M949.8,287.2c1.9-0.5,3.1-2.4,2.6-4.5c-0.6-2-2.6-3-4.5-2.5c-2,0.5-3.1,2.6-2.6,4.5
			C945.8,286.6,947.8,287.7,949.8,287.2z"/>
		<path fill="#27374D" d="M946.5,292.2l-0.3-1.1l8.7-2.4l0.3,1.2c0.7,2.7,0,3.8-1.6,4.2c-1.8,0.5-2.9-0.7-3.4-2.4l-0.2-0.6
			L946.5,292.2z M951.1,290.9l0.1,0.3c0.3,1.1,0.8,2.3,2.2,1.9c1.4-0.4,1.2-1.7,0.9-2.8l-0.1-0.3L951.1,290.9z"/>
		<path fill="#27374D" d="M956.6,295l1.3,4.7l-1,0.3l-1-3.6l-2.4,0.7l1,3.5l-1,0.3l-1-3.5l-3.3,0.9l1,3.6l-1,0.3l-1.3-4.7L956.6,295
			z M960,298.2l-2.2-1.4l0.2-0.6l2.3,0.9L960,298.2z"/>
		<path fill="#27374D" d="M951.2,309.4l-0.4-1.3l3-3.6l-0.1-0.5l-3.7,1l-0.3-1.1l8.7-2.4l0.4,1.3c0.2,0.8,0.4,1.6,0.2,2.4
			c-0.2,0.8-0.9,1.5-1.8,1.7c-1.2,0.3-2.5-0.2-3-1.4L951.2,309.4z M954.6,303.8l0.1,0.3c0.3,1.1,0.8,2.3,2.2,1.9
			c1.4-0.4,1.2-1.7,0.9-2.8l-0.1-0.3L954.6,303.8z"/>
		<path fill="#27374D" d="M954.2,311.5l-2.5-0.4l-0.3-1.2l10.2,1.7l-7.9,6.7l-0.3-1.2l1.9-1.6L954.2,311.5z M959.2,312.3l-4-0.6
			l0.9,3.1L959.2,312.3z"/>
	</g>
	<g>
		<path fill="#27374D" d="M817.2,179.6l-0.7,1.2l-4.6,0.4l-0.2,0.4l3.3,1.9l-0.6,1l-7.8-4.5l0.7-1.2c0.4-0.7,0.8-1.4,1.6-1.9
			c0.8-0.4,1.7-0.4,2.5,0.1c1.1,0.7,1.6,1.9,1.1,3.1L817.2,179.6z M810.8,181.1l0.2-0.3c0.6-1,1-2.2-0.2-2.9
			c-1.2-0.7-2.1,0.3-2.6,1.3l-0.2,0.3L810.8,181.1z"/>
		<path fill="#27374D" d="M810.6,172.9l4.6,2.7c1.3,0.7,2.7,1,3.6-0.5c0.9-1.5-0.1-2.6-1.4-3.3l-4.6-2.7l0.6-1l4.9,2.9
			c1.7,1,2.4,2.8,1.4,4.6c-1,1.8-3,2.1-4.7,1.1l-4.9-2.9L810.6,172.9z"/>
		<path fill="#27374D" d="M814.5,166.3l2.4-4.2l0.9,0.5l-1.9,3.2l2.2,1.3l1.8-3.1l0.9,0.5l-1.8,3.1l3,1.7l1.9-3.2l0.9,0.5l-2.4,4.2
			L814.5,166.3z"/>
		<path fill="#27374D" d="M819.9,156.9l0.9-1.6c1.4-2.4,3.8-3.7,6.4-2.1c2.7,1.5,2.8,4.2,1.4,6.7l-0.9,1.6L819.9,156.9z M827.4,160
			l0.2-0.3c1.2-2,1.4-4.1-0.9-5.5c-2.3-1.3-4,0-5.2,2l-0.2,0.3L827.4,160z"/>
		<path fill="#27374D" d="M825.3,148l2,3l-0.6,0.4l-2.2-2.8L825.3,148z"/>
		<path fill="#27374D" d="M832.8,148.3l1.4,2l-0.6,1l-6-8.5l10.3,1l-0.6,1l-2.5-0.2L832.8,148.3z M829.7,144.2l2.4,3.2l1.6-2.8
			L829.7,144.2z"/>
		<path fill="#27374D" d="M830.4,138.1l9.6-2.3l-5.8-3.4l0.6-1l8.1,4.7l-9.6,2.3l5.8,3.4l-0.6,1L830.4,138.1z"/>
		<path fill="#27374D" d="M844.9,132l-0.6,1l-6.9-4l-1.1,1.9l-0.9-0.5l2.7-4.7l0.9,0.5l-1.1,1.9L844.9,132z"/>
		<path fill="#27374D" d="M844.9,127.4l1.4,2l-0.6,1l-6-8.5l10.3,1l-0.6,1l-2.5-0.2L844.9,127.4z M841.9,123.3l2.4,3.2l1.6-2.8
			L841.9,123.3z"/>
		<path fill="#27374D" d="M842.5,117.2l9.6-2.3l-5.8-3.4l0.6-1l8.1,4.7l-9.6,2.3l5.8,3.4l-0.6,1L842.5,117.2z"/>
	</g>
	<g>
		<path fill="#27374D" d="M758.2,166.5l-0.7,1.2l-4.7,0.2l-0.2,0.4l3.3,2l-0.6,1l-7.7-4.8l0.7-1.2c0.4-0.7,0.9-1.4,1.6-1.8
			c0.8-0.4,1.7-0.3,2.5,0.1c1.1,0.7,1.6,2,1,3.2L758.2,166.5z M751.8,167.8l0.2-0.3c0.6-1,1.1-2.2-0.1-2.9c-1.2-0.7-2.1,0.3-2.7,1.2
			l-0.2,0.3L751.8,167.8z"/>
		<path fill="#27374D" d="M751.8,159.6l4.5,2.8c1.3,0.8,2.7,1.1,3.6-0.4c0.9-1.5,0-2.6-1.3-3.4l-4.5-2.8l0.6-1l4.9,3
			c1.7,1,2.3,2.9,1.2,4.7c-1.1,1.8-3,2-4.7,1l-4.9-3L751.8,159.6z"/>
		<path fill="#27374D" d="M755.9,153.1l2.6-4.1l0.9,0.5l-2,3.2l2.2,1.3l1.9-3.1l0.9,0.5l-1.9,3.1l2.9,1.8l2-3.2l0.9,0.5l-2.6,4.1
			L755.9,153.1z"/>
		<path fill="#27374D" d="M769,147.1l1.4-2.3l0.9,0.5l-2,3.3l-7.7-4.8l0.6-1L769,147.1z"/>
		<path fill="#27374D" d="M772.9,134.3c2.3,1.4,2.9,4.3,1.5,6.5c-1.4,2.2-4.2,3-6.5,1.5c-2.2-1.4-2.9-4.3-1.5-6.5
			C767.7,133.6,770.7,132.9,772.9,134.3z M772.3,135.2c-1.7-1-3.9-0.7-5,1.1c-1.1,1.8-0.5,3.9,1.2,5c1.8,1.1,4,0.5,5-1.1
			C774.5,138.6,774,136.3,772.3,135.2z"/>
		<path fill="#27374D" d="M770.4,129.6l4.5,2.8c1.3,0.8,2.6,1.1,3.6-0.4c0.9-1.5,0-2.6-1.3-3.4l-4.5-2.8l0.6-1l4.9,3
			c1.7,1,2.3,2.9,1.2,4.7c-1.1,1.8-3,2-4.7,1l-4.9-3L770.4,129.6z"/>
		<path fill="#27374D" d="M782.7,126.9l-0.6,1l-7.7-4.8l0.6-1L782.7,126.9z"/>
		<path fill="#27374D" d="M779.8,117.7c-0.7,0-1.1,0.2-1.5,0.8c-0.4,0.6-0.4,1.5,0.3,2c0.6,0.4,1.3,0,1.8-0.4l0.6-0.4
			c1.1-0.8,2.2-1.3,3.5-0.5c1.4,0.9,1.7,2.6,0.9,3.9c-0.8,1.2-2.3,1.6-3.6,1l0.4-1.1c0.8,0.5,1.9,0.2,2.4-0.6
			c0.5-0.8,0.2-1.8-0.6-2.3c-0.8-0.5-1.6-0.1-2.3,0.4L781,121c-0.9,0.6-1.9,1.1-3,0.5c-1.2-0.8-1.3-2.3-0.6-3.5
			c0.5-0.9,1.4-1.3,2.4-1.3L779.8,117.7z"/>
		<path fill="#27374D" d="M789.5,114.1l1.4-2.3l0.9,0.5l-2,3.3l-7.7-4.8l0.6-1L789.5,114.1z"/>
		<path fill="#27374D" d="M784.9,106.4l2.6-4.1l0.9,0.5l-2,3.2l2.2,1.3l1.9-3.1l0.9,0.5l-1.9,3.1l2.9,1.8l2-3.2l0.9,0.5l-2.6,4.1
			L784.9,106.4z"/>
		<path fill="#27374D" d="M798.8,92.4l0.3,0.2c2.1,1.3,2.8,3.8,1.5,6s-4.3,2.7-6.4,1.4c-2.2-1.4-2.9-4.3-1.6-6.5
			c0.7-1.2,2-2,3.4-2.2l0.2,1.1c-1.1,0.1-2.2,0.7-2.8,1.6c-1.1,1.7-0.5,3.9,1.2,5c1.6,1,4,0.6,5-1c0.7-1.2,0.5-3.1-0.7-3.9l-1.2,2
			l-0.9-0.5L798.8,92.4z"/>
		<path fill="#27374D" d="M806.5,88.6l-0.7,1.2l-4.7,0.2l-0.2,0.4l3.3,2l-0.6,1l-7.7-4.8l0.7-1.2c0.4-0.7,0.9-1.4,1.6-1.8
			c0.8-0.4,1.7-0.3,2.5,0.1c1.1,0.7,1.6,2,1,3.2L806.5,88.6z M800.1,89.9l0.2-0.3c0.6-1,1.1-2.2-0.1-2.9c-1.2-0.7-2.1,0.3-2.7,1.2
			l-0.2,0.3L800.1,89.9z"/>
		<path fill="#27374D" d="M806.1,85l1.4,2.1l-0.6,1l-5.7-8.6l10.3,1.3l-0.6,1l-2.5-0.3L806.1,85z M803.2,80.8l2.3,3.3l1.7-2.7
			L803.2,80.8z"/>
		<path fill="#27374D" d="M804,74.8l9.6-2l-5.7-3.5l0.6-1l8,5l-9.6,2l5.7,3.6l-0.6,1L804,74.8z"/>
		<path fill="#27374D" d="M809.6,66.5l1-1.6c1.5-2.4,3.9-3.5,6.5-2c2.6,1.6,2.7,4.3,1.2,6.8l-1,1.6L809.6,66.5z M817,69.7l0.2-0.3
			c1.2-2,1.5-4.1-0.7-5.5c-2.2-1.4-4-0.1-5.2,1.8l-0.2,0.3L817,69.7z"/>
	</g>
	<g>
		<path fill="#27374D" d="M641.6,81.9l-0.8,1.1l-4.7,0.1l-0.3,0.4l3.2,2.2l-0.6,0.9l-7.5-5.1l0.8-1.1c0.5-0.7,0.9-1.4,1.7-1.7
			c0.8-0.4,1.7-0.3,2.5,0.2c1.1,0.7,1.5,2,0.9,3.2L641.6,81.9z M635.1,82.9l0.2-0.3c0.6-1,1.2-2.1,0-2.9c-1.2-0.8-2.1,0.2-2.7,1.1
			l-0.2,0.2L635.1,82.9z"/>
		<path fill="#27374D" d="M635.5,74.8l4.4,3c1.2,0.8,2.6,1.2,3.6-0.2c1-1.4,0.1-2.6-1.1-3.4l-4.4-3l0.6-0.9l4.7,3.2
			c1.6,1.1,2.2,3,1,4.7c-1.2,1.7-3.1,1.9-4.8,0.8l-4.7-3.2L635.5,74.8z"/>
		<path fill="#27374D" d="M639.8,68.4l2.7-4l0.9,0.6l-2.1,3.1l2.1,1.4l2-3l0.9,0.6l-2,3l2.8,1.9l2.1-3.1l0.9,0.6l-2.7,4L639.8,68.4z
			"/>
		<path fill="#27374D" d="M645.9,59.5l1.1-1.5c1.6-2.3,4.1-3.4,6.6-1.7c2.5,1.7,2.5,4.4,0.9,6.8l-1,1.5L645.9,59.5z M653.2,63.1
			l0.2-0.3c1.3-1.9,1.7-4-0.5-5.5c-2.2-1.5-4-0.3-5.3,1.6l-0.2,0.3L653.2,63.1z"/>
		<path fill="#27374D" d="M650.8,52.3l2.7-4l0.9,0.6l-2.1,3.1l2.1,1.4l2-3l0.9,0.6l-2,3l2.8,1.9l2.1-3.1l0.9,0.6l-2.7,4L650.8,52.3z
			"/>
		<path fill="#27374D" d="M664.2,46.8l1.5-2.3l0.9,0.6l-2.2,3.2l-7.5-5.1l0.6-0.9L664.2,46.8z"/>
		<path fill="#27374D" d="M666.2,41.7l1.3,2.1l-0.7,1l-5.4-8.9l10.2,1.7l-0.7,1l-2.5-0.4L666.2,41.7z M663.5,37.4l2.1,3.4l1.8-2.7
			L663.5,37.4z"/>
		<path fill="#27374D" d="M675.3,32.3l-0.6,0.9l-7.5-5.1L668,27c1.6-2.3,2.8-2.5,4.2-1.5c1.6,1.1,1.4,2.7,0.4,4.1l-0.4,0.5
			L675.3,32.3z M671.4,29.6l0.2-0.3c0.6-1,1.2-2.1,0-2.9c-1.2-0.8-2.1,0.2-2.7,1.1l-0.2,0.2L671.4,29.6z"/>
		<path fill="#27374D" d="M676.7,26.3l1.3,2.1l-0.7,1l-5.4-8.9l10.2,1.7l-0.7,1l-2.5-0.4L676.7,26.3z M674,21.9l2.1,3.4l1.8-2.7
			L674,21.9z"/>
		<path fill="#27374D" d="M683.5,20.2l-0.6,0.9l-7.5-5.1l0.6-0.9L683.5,20.2z"/>
		<path fill="#27374D" d="M677.1,13.7l0.7-1.1l3.8,0.3l-1.6-3.5l0.7-1.1l2.1,4.6l5.5,0.4l-0.7,1l-4.3-0.3L685,18l-0.7,1l-2.3-5
			L677.1,13.7z"/>
	</g>
	<g>
		<path fill="#27374D" d="M636.3,183l-1.3-0.4l-1.3-4.5l-0.4-0.2l-1.2,3.6l-1.1-0.4l3-8.5l1.3,0.4c0.8,0.3,1.6,0.6,2.1,1.2
			c0.6,0.7,0.7,1.6,0.4,2.4c-0.4,1.2-1.6,2-2.9,1.7L636.3,183z M633.6,177l0.3,0.1c1.1,0.4,2.3,0.6,2.8-0.8c0.5-1.3-0.7-2-1.8-2.3
			l-0.3-0.1L633.6,177z"/>
		<path fill="#27374D" d="M641.6,175.2l-1.7,5c-0.5,1.4-0.5,2.8,1.1,3.4c1.6,0.6,2.5-0.6,3-2l1.7-5l1.1,0.4l-1.9,5.4
			c-0.6,1.9-2.3,2.9-4.3,2.2s-2.6-2.5-2-4.4l1.9-5.4L641.6,175.2z"/>
		<path fill="#27374D" d="M648.8,177.7l4.6,1.6l-0.3,1l-3.5-1.2l-0.8,2.4l3.4,1.2l-0.3,1l-3.4-1.2l-1.1,3.2l3.5,1.2l-0.3,1l-4.6-1.6
			L648.8,177.7z"/>
		<path fill="#27374D" d="M659,181.3l1.8,0.6c2.6,0.9,4.3,3,3.3,5.9c-1,2.9-3.6,3.6-6.3,2.7l-1.7-0.6L659,181.3z M657.5,189.2
			l0.4,0.1c2.2,0.8,4.3,0.6,5.2-1.9c0.9-2.5-0.7-3.9-2.9-4.7l-0.4-0.1L657.5,189.2z"/>
		<path fill="#27374D" d="M666.2,190.9l-1.7,1.8l-1.1-0.4l7.2-7.5l1,10.3l-1.1-0.4l-0.2-2.5L666.2,190.9z M669.7,187.2l-2.7,2.9l3,1
			L669.7,187.2z"/>
		<path fill="#27374D" d="M675.8,186.6l4.1,8.9l2.2-6.3l1.1,0.4l-3.1,8.9l-4.1-8.9l-2.2,6.4l-1.1-0.4L675.8,186.6z"/>
		<path fill="#27374D" d="M683.3,199.2l-1.1-0.4l3-8.5l1.1,0.4L683.3,199.2z"/>
		<path fill="#27374D" d="M688.4,191.4l4.6,1.6l-0.3,1l-3.5-1.2l-0.8,2.4l3.4,1.2l-0.3,1l-3.4-1.2l-1.1,3.2l3.5,1.2l-0.3,1l-4.6-1.6
			L688.4,191.4z"/>
		<path fill="#27374D" d="M693.4,201.6l2.6,0.9l-0.3,1l-3.7-1.3l3-8.5l1.1,0.4L693.4,201.6z"/>
		<path fill="#27374D" d="M698.3,203.3l2.6,0.9l-0.3,1l-3.7-1.3l3-8.5l1.1,0.4L698.3,203.3z"/>
		<path fill="#27374D" d="M704.8,197.1l4.6,1.6l-0.3,1l-3.5-1.2l-0.8,2.4l3.4,1.2l-0.3,1l-3.4-1.2l-1.1,3.2l3.5,1.2l-0.3,1l-4.6-1.6
			L704.8,197.1z"/>
		<path fill="#27374D" d="M720.8,204.4c-0.4-0.8-1.2-1.3-2-1.6c-1.9-0.7-3.9,0.4-4.6,2.3c-0.6,1.9,0.3,4,2.2,4.6
			c0.8,0.3,1.8,0.2,2.6-0.1l-0.4,1.3c-0.8,0.2-1.7,0.1-2.5-0.2c-2.4-0.8-3.8-3.5-2.9-5.9c0.9-2.5,3.6-3.8,6.1-2.9
			c0.7,0.3,1.4,0.7,2,1.3L720.8,204.4z"/>
		<path fill="#27374D" d="M722.2,210.2l-1.7,1.8l-1.1-0.4l7.2-7.5l1,10.3l-1.1-0.4l-0.2-2.5L722.2,210.2z M725.7,206.5l-2.7,2.9l3,1
			L725.7,206.5z"/>
		<path fill="#27374D" d="M735,209.3c-0.1-0.6-0.4-1.1-1.1-1.3c-0.7-0.2-1.6,0-1.8,0.7c-0.2,0.7,0.3,1.2,0.8,1.6l0.5,0.5
			c1,0.9,1.7,1.9,1.2,3.3c-0.5,1.6-2.1,2.2-3.7,1.7c-1.4-0.5-2.1-1.9-1.8-3.3l1.2,0.1c-0.3,0.9,0.2,1.9,1.1,2.2
			c0.9,0.3,1.8-0.2,2.2-1.1c0.3-0.9-0.3-1.6-0.9-2.1l-0.5-0.5c-0.8-0.8-1.5-1.6-1.1-2.8c0.5-1.4,2-1.8,3.3-1.3
			c1,0.3,1.6,1.1,1.8,2.1L735,209.3z"/>
		<path fill="#27374D" d="M737.4,215.5l-1.7,1.8l-1.1-0.4l7.2-7.5l1,10.3l-1.1-0.4l-0.2-2.5L737.4,215.5z M740.9,211.7l-2.7,2.9l3,1
			L740.9,211.7z"/>
		<path fill="#27374D" d="M747,211.2l4.1,8.9l2.2-6.3l1.1,0.4l-3.1,8.9l-4.1-8.9l-2.2,6.4l-1.1-0.4L747,211.2z"/>
		<path fill="#27374D" d="M763.3,222c-0.9,2.5-3.5,3.8-6,2.9c-2.5-0.9-3.8-3.5-2.9-6c0.8-2.4,3.6-3.8,6-2.9
			C762.8,216.9,764.1,219.6,763.3,222z M762.2,221.7c0.6-1.9-0.2-3.9-2.2-4.6c-2-0.7-4,0.4-4.6,2.3c-0.7,2,0.4,4,2.2,4.6
			C759.4,224.6,761.5,223.6,762.2,221.7z"/>
		<path fill="#27374D" d="M767,225.6l4.7-5.5l1.2,0.4l-6.8,7.7l-0.6-10.3l1.2,0.4L767,225.6z"/>
		<path fill="#27374D" d="M772,227.4l-1.7,1.8l-1.1-0.4l7.2-7.5l1,10.3l-1.1-0.4l-0.2-2.5L772,227.4z M775.5,223.7l-2.7,2.9l3,1
			L775.5,223.7z"/>
	</g>
	<g id="Calque_2_1_">
		<path fill="#E0BB6D" d="M440.2,129.6c-9.8,0-17.8,8-17.8,17.8c0,0.2,0,0.4,0,0.6c0.1,1.9,0.4,3.7,1,5.4
			c3.8,12.5,16.8,28.8,16.8,28.8s13-16.3,16.8-28.8c0.6-1.7,1-3.5,1-5.4c0-0.2,0-0.4,0-0.6C458.1,137.6,450.1,129.6,440.2,129.6z
			 M440.2,156.2c-4.8,0-8.7-3.9-8.7-8.7s3.9-8.7,8.7-8.7c4.8,0,8.7,3.9,8.7,8.7S445,156.2,440.2,156.2z"/>
	</g>
	<g>
		<path fill="#E0BB6D" d="M412,205.2h-1.8l-3.6-5.1H406v5.1h-1.5v-12.1h1.8c1.1,0,2.2,0,3.2,0.6c1,0.6,1.6,1.7,1.6,2.9
			c0,1.7-1.2,3.2-2.9,3.4L412,205.2z M406,198.9h0.5c1.5,0,3.2-0.3,3.2-2.2c0-1.9-1.8-2.2-3.3-2.2H406V198.9z"/>
		<path fill="#E0BB6D" d="M415.4,205.2h-1.5v-12.1h1.5V205.2z"/>
		<path fill="#E0BB6D" d="M421.7,205.2h-1.5v-10.7h-2.9v-1.4h7.2v1.4h-2.9V205.2z"/>
		<path fill="#E0BB6D" d="M434.1,203.9v1.4h-8.6l6.1-10.7h-5.2v-1.4h7.7l-6.1,10.7H434.1z"/>
		<path fill="#E0BB6D" d="M443.1,205.2h-1.5v-12.1h1.7c3.7,0,4.9,1.3,4.9,3.5c0,2.5-1.9,3.5-4.2,3.5h-0.9V205.2z M443.1,198.8h0.5
			c1.5,0,3.2-0.3,3.2-2.2c0-1.9-1.8-2.1-3.3-2.1h-0.4V198.8z"/>
		<path fill="#E0BB6D" d="M450.8,202.2l-1.4,3h-1.6l5.8-12.6l5.8,12.6h-1.6l-1.4-3H450.8z M453.6,196l-2.1,4.9h4.3L453.6,196z"/>
		<path fill="#E0BB6D" d="M468.6,205.2h-1.8l-3.6-5.1h-0.6v5.1h-1.5v-12.1h1.8c1.1,0,2.2,0,3.2,0.6c1,0.6,1.6,1.7,1.6,2.9
			c0,1.7-1.2,3.2-2.9,3.4L468.6,205.2z M462.6,198.9h0.5c1.5,0,3.2-0.3,3.2-2.2c0-1.9-1.8-2.2-3.3-2.2h-0.4V198.9z"/>
		<path fill="#E0BB6D" d="M472.1,205.2h-1.5v-12.1h1.5V205.2z"/>
		<path fill="#E0BB6D" d="M480.5,195.5c-0.4-0.8-1-1.1-1.9-1.1c-1,0-2,0.7-2,1.7c0,0.9,0.9,1.4,1.7,1.7l0.9,0.3c1.7,0.7,3,1.6,3,3.6
			c0,2.2-1.7,3.8-3.9,3.8c-2,0-3.5-1.4-3.7-3.4l1.5-0.3c0,1.3,1,2.3,2.3,2.3c1.3,0,2.2-1.1,2.2-2.4c0-1.3-1-1.9-2.1-2.3l-0.8-0.4
			c-1.4-0.6-2.6-1.4-2.6-3.1c0-2,1.7-3.1,3.6-3.1c1.3,0,2.4,0.7,3.1,1.8L480.5,195.5z"/>
	</g>
</g>
<g id="Calque_5" display="none">
</g>
<g id="Calque_2" display="none">
</g>
<g id="Calque_3" display="none">
</g>
</svg>
